<?xml version="1.0" encoding="UTF-8"?>
<svg width="32px" height="32px" viewBox="0 0 32 32" version="1.1" xmlns="http://www.w3.org/2000/svg" xmlns:xlink="http://www.w3.org/1999/xlink">
    <!-- Generator: Sketch 52.2 (67145) - http://www.bohemiancoding.com/sketch -->
    <title>路径</title>
    <desc>Created with Sketch.</desc>
    <g id="组件" stroke="none" stroke-width="1" fill="none" fill-rule="evenodd">
        <g id="组件/条" transform="translate(-1111.000000, -24.000000)" fill="#EAF0F7">
            <g id="分组-11">
                <g id="分组-5" transform="translate(1111.000000, 24.000000)">
                    <path d="M14.7669445,31.5415728 C14.5286692,31.3410917 12.3663341,29.5103071 9.81455385,26.9981043 C6.41307517,23.648818 3.97337668,20.7287843 2.56295721,18.3194063 C1.9231233,17.2251247 1.30976442,16.1418601 0.837335092,14.9218358 C0.273866645,13.4667834 0,12.0275084 0,10.5219956 C0,7.74844649 0.914824492,5.13137873 2.5760074,3.15281757 C4.28295963,1.11978374 6.56724223,8.8817842e-15 9.00756513,8.8817842e-15 C11.7394879,8.8817842e-15 14.3065663,1.45838469 15.9997815,3.8936049 C17.6934962,1.45838469 20.2609491,8.8817842e-15 22.9922475,8.8817842e-15 C25.4323831,8.8817842e-15 27.716416,1.11978374 29.4235555,3.15281757 C31.0849882,5.13131073 32,7.74844649 32,10.5219956 C32,13.9375197 30.5179606,16.4700562 29.4359813,18.3192023 C28.0261238,20.7288523 25.5864253,23.648818 22.1846969,26.9981043 C19.632979,29.5102391 17.4702693,31.3411597 17.231994,31.5418448 C16.8786025,31.8380471 16.4453955,31.9990784 15.9994693,31.9999999 C15.5534962,31.9991126 15.1202549,31.8379724 14.7669445,31.5415728 Z" id="路径"></path>
                </g>
            </g>
        </g>
    </g>
</svg>