<?xml version="1.0" encoding="UTF-8"?>
<svg width="35px" height="35px" viewBox="0 0 35 35" version="1.1" xmlns="http://www.w3.org/2000/svg" xmlns:xlink="http://www.w3.org/1999/xlink">
    <!-- Generator: Sketch 52.2 (67145) - http://www.bohemiancoding.com/sketch -->
    <title>dengluyonghuming</title>
    <desc>Created with Sketch.</desc>
    <g id="Page-1" stroke="none" stroke-width="1" fill="none" fill-rule="evenodd">
        <g id="首页" transform="translate(-1740.000000, -46.000000)">
            <g id="dengluyonghuming" transform="translate(1742.000000, 46.000000)">
                <path d="M23.3229649,18.3135831 L22.617772,18.3135831 C22.3252476,18.3205234 22.0377476,18.388014 21.7749805,18.5114286 C21.7749805,18.5114286 21.2073862,18.8246838 20.6913914,19.0390164 C19.0566648,19.6928741 17.3027767,20.0291166 15.5314434,20.0282436 C13.7590103,20.0399691 12.0028828,19.7032973 10.3714954,19.0390164 C9.85550065,18.8246838 9.27070653,18.5114286 9.27070653,18.5114286 C9.01203178,18.377522 8.72186804,18.309406 8.42791505,18.3135831 L7.6883225,18.3135831 C4.6633451,18.8429029 2.14259142,20.8408783 1.0319896,23.5894614 C0.34736909,25.2421692 -0.00285841921,27.0046739 9.08279528e-15,28.782904 C0.0603999975,29.3086247 0.380251809,29.7746539 0.859991317,30.035925 C0.859991317,30.035925 5.67594278,32.9871195 15.479844,32.9871195 C25.2837451,32.9871195 30.0996966,30.0359251 30.0996966,30.035925 C30.5840483,29.7713546 30.9045907,29.298174 30.9596879,28.7664169 C30.9783786,27.0166621 30.6394732,25.2803293 29.9620979,23.6554098 C28.8965174,20.8581744 26.3748445,18.8041954 23.3229649,18.2476347 L23.3229649,18.3135831 Z" id="Shape" stroke="#FFFFFF" stroke-width="3" fill-rule="nonzero"></path>
                <path d="M6.87993066,8.25644029 C6.87993068,12.8092326 10.730243,16.5 15.479844,16.5 C20.2294449,16.4999999 24.0797573,12.8092325 24.0797572,8.25644024 C24.0797572,3.70364794 20.2294449,0.0128805492 15.479844,0.0128805492 C13.1990051,0.0128805492 11.0115835,0.881395958 9.39878693,2.4273633 C7.78599034,3.97333064 6.87993065,6.07011232 6.87993066,8.25644029 Z" id="Path" fill="#31B5EC"></path>
            </g>
        </g>
    </g>
</svg>