<?xml version="1.0" encoding="UTF-8"?>
<svg width="105px" height="81px" viewBox="0 0 105 81" version="1.1" xmlns="http://www.w3.org/2000/svg" xmlns:xlink="http://www.w3.org/1999/xlink">
    <!-- Generator: Sketch 52.2 (67145) - http://www.bohemiancoding.com/sketch -->
    <title>dizhifuwu</title>
    <desc>Created with Sketch.</desc>
    <g id="Page-1" stroke="none" stroke-width="1" fill="none" fill-rule="evenodd">
        <g id="首页" transform="translate(-908.000000, -2149.000000)">
            <g id="dizhifuwu" transform="translate(908.000000, 2149.000000)">
                <path d="M33.7767857,36.377551 C34.40625,37.3265306 37.0290179,41.3333333 50.2477679,60.3129252 L50.3526786,60.4183673 C51.0870536,61.3673469 52.3459821,62 53.5,62 C54.7589286,62 56.0178571,61.3673469 56.6473214,60.3129252 C62.3125,52.0884354 73.0133929,36.5884354 73.4330357,36.0612245 L73.5379464,35.9557823 C75.7410714,32.2653061 77,27.9421769 77,23.6190476 C77,10.6496599 66.5089286,0 53.5,0 C40.4910714,0 30,10.5442177 30,23.6190476 C30,28.1530612 31.2589286,32.4761905 33.7767857,36.377551 Z M53.3950893,6.01020408 C63.046875,6.01020408 70.9151786,13.9183673 70.9151786,23.6190476 C70.9151786,26.7823129 70.0758929,29.8401361 68.3973214,32.792517 C67.7678571,33.7414966 59.1651786,46.1836735 53.5,54.4081633 C49.09375,48.0816327 39.546875,34.2687075 38.6026786,33.0034014 C36.8191964,30.2619048 35.7700893,26.9931973 35.7700893,23.7244898 C35.875,14.0238095 43.7433036,6.01020408 53.3950893,6.01020408 Z" id="Shape" fill="#31B5EC" fill-rule="nonzero"></path>
                <path d="M53.5,15 C58.1940299,15 62,18.5820896 62,23 C62,27.5373134 58.1940299,31 53.5,31 C48.8059701,31 45,27.4179104 45,23 C45,18.5820896 48.8059701,15 53.5,15 Z" id="Path" fill="#31B5EC"></path>
                <path d="M103.222934,66.5257985 L88.6257199,38.1056511 L76.5488884,38.1056511 L71.8231717,44.2334152 L84.9501625,44.2334152 L98.2871851,69.9066339 L98.4972169,70.1179361 C99.2323284,71.0687961 99.2323284,72.3366093 98.7072488,73.3931204 C98.1821692,74.4496314 97.1320099,75.0835381 95.8718188,75.0835381 L9.23367974,75.0835381 C7.97348863,75.0835381 6.92332937,74.4496314 6.39824973,73.3931204 C5.8731701,72.2309582 5.97818603,71.0687961 6.71329751,70.012285 L6.81831344,69.9066339 L19.9453042,44.1277641 L34.8575657,44.1277641 L29.9218172,38 L16.2697468,38 L1.67253306,66.5257985 C-0.322769538,69.3783784 -0.53280139,72.970516 1.0424375,75.9287469 C2.72269232,79.0982801 5.76815418,81 9.33869567,81 L95.9768347,81 C99.4423603,81 102.592838,79.0982801 104.168077,75.9287469 C105.533284,72.8648649 105.218236,69.2727273 103.222934,66.5257985 Z" id="Path" fill="#FFFFFF"></path>
            </g>
        </g>
    </g>
</svg>