<?xml version="1.0" encoding="UTF-8"?>
<svg width="22px" height="23px" viewBox="0 0 22 23" version="1.1" xmlns="http://www.w3.org/2000/svg" xmlns:xlink="http://www.w3.org/1999/xlink">
    <!-- Generator: Sketch 52.2 (67145) - http://www.bohemiancoding.com/sketch -->
    <title>qiye</title>
    <desc>Created with Sketch.</desc>
    <g id="Page-1" stroke="none" stroke-width="1" fill="none" fill-rule="evenodd">
        <g id="债找找登录-信息填写" transform="translate(-834.000000, -399.000000)" fill="#626262">
            <path d="M854.916388,419.305205 L853.203813,419.305205 L853.203813,401.464145 C853.203813,400.911756 852.958871,400.381555 852.532037,400.010779 C852.095069,399.632699 851.509013,399.44857 850.933156,399.512463 L841.347604,400.420744 C840.30952,400.533676 839.526482,401.3734 839.526482,402.372579 L839.526482,405.296589 L837.798846,405.465989 C837.225483,405.529759 836.793567,406.0011 836.793567,406.56334 L836.793567,419.307599 L835.080992,419.307599 C834.484928,419.307599 834,419.776546 834,420.35591 L834,420.449172 C834,421.028659 834.482465,421.5 835.080992,421.5 L854.918882,421.5 C855.515041,421.5 856,421.031052 856,420.449172 L856,420.35591 C855.994948,419.77403 855.512452,419.305205 854.916388,419.305205 Z M838.631579,408.000969 L845.578947,407.2 L845.578947,408.599031 L838.631579,409.4 L838.631579,408.000969 Z M838.631579,412.400997 L845.578947,411.6 L845.578947,412.998918 L838.631579,413.8 L838.631579,412.400997 Z M838.631579,416.80111 L845.578947,416 L845.578947,417.399031 L838.631579,418.2 L838.631579,416.80111 Z M847.204233,404.872137 L840.947368,405.445253 L840.947368,402.764427 C840.947368,402.675676 841.034157,402.599005 841.134024,402.589384 L851.110784,401.702149 C851.210783,401.69019 851.276506,401.730954 851.305392,401.754932 C851.347521,401.788532 851.368421,401.829295 851.368421,401.877162 L851.368421,419.3 L848.521401,419.3 L848.521401,405.943916 C848.521401,405.298924 847.906129,404.797804 847.204233,404.872137 Z" id="qiye"></path>
        </g>
    </g>
</svg>