<?xml version="1.0" encoding="UTF-8"?>
<svg width="16px" height="23px" viewBox="0 0 16 23" version="1.1" xmlns="http://www.w3.org/2000/svg" xmlns:xlink="http://www.w3.org/1999/xlink">
    <!-- Generator: Sketch 52.2 (67145) - http://www.bohemiancoding.com/sketch -->
    <title>shoujihao</title>
    <desc>Created with Sketch.</desc>
    <g id="Page-1" stroke="none" stroke-width="1" fill="none" fill-rule="evenodd">
        <g id="债找找登录-信息填写" transform="translate(-837.000000, -468.000000)" fill="#626262">
            <g id="shoujihao" transform="translate(837.000000, 468.500000)">
                <path d="M2.12786737e-06,2.58830918 C0.00468962658,1.16013408 1.29934071,0.00368286139 2.89717681,3.65890002e-06 L13.1027329,3.65890002e-06 C13.8713024,-0.00115112728 14.6088923,0.271083001 15.1524319,0.75679144 C15.6960014,1.24239246 16.0009593,1.90139939 15.9999977,2.58830918 L15.9999977,19.4116908 C15.9953102,20.8398659 14.7006591,21.9964246 13.1027329,21.9999963 L2.89717681,21.9999963 C2.12860731,22.0011511 1.39113756,21.728917 0.847568001,21.243316 C0.303998439,20.7576075 -0.000929362261,20.0986006 2.12786737e-06,19.4116908 L2.12786737e-06,2.58830918 Z M8.0284376,20.8999089 C8.65574419,20.8849096 9.15312239,20.3858037 9.14269618,19.7817904 C9.13226997,19.177865 8.61787218,18.6949883 7.99038307,18.7000393 C7.36289397,18.7051122 6.85707441,19.1962244 6.85714286,19.8002376 C6.86088443,20.0955901 6.98645526,20.3773926 7.20613576,20.5836277 C7.42581627,20.7898627 7.72160583,20.9036862 8.0284376,20.8999089 Z M2.46153846,16.5 L13.5384615,16.5 L13.5384615,2.2 L2.46153846,2.2 L2.46153846,16.5 Z" id="Fill-1" transform="translate(8.000000, 11.000000) scale(-1, 1) translate(-8.000000, -11.000000) "></path>
            </g>
        </g>
    </g>
</svg>