<?xml version="1.0" encoding="UTF-8"?>
<svg width="104px" height="72px" viewBox="0 0 104 72" version="1.1" xmlns="http://www.w3.org/2000/svg" xmlns:xlink="http://www.w3.org/1999/xlink">
    <!-- Generator: Sketch 52.2 (67145) - http://www.bohemiancoding.com/sketch -->
    <title>tongxun </title>
    <desc>Created with Sketch.</desc>
    <g id="Page-1" stroke="none" stroke-width="1" fill="none" fill-rule="evenodd">
        <g id="首页" transform="translate(-896.000000, -1171.000000)" fill-rule="nonzero">
            <g id="tongxun-" transform="translate(896.000000, 1171.000000)">
                <path d="M53.7517768,29.8129973 C53.7517768,32.2536629 55.9173165,34.2322133 58.5886451,34.2322133 C61.2599737,34.2322133 63.4255134,32.2536629 63.4255134,29.8129973 C63.4255134,27.3723316 61.2599737,25.3937812 58.5886451,25.3937812 C55.9173165,25.3937812 53.7517768,27.3723316 53.7517768,29.8129973 Z" id="Shape" fill="#FFFFFF"></path>
                <path d="M36.5971228,29.8129972 C36.5971228,32.2536629 38.7626626,34.2322134 41.4339912,34.2322134 C44.1053198,34.2322134 46.2708595,32.2536629 46.2708595,29.8129972 C46.2708595,27.3723316 44.1053198,25.3937811 41.4339912,25.3937811 C38.7626626,25.3937811 36.5971228,27.3723316 36.5971228,29.8129972 Z" id="Shape" fill="#FFFFFF"></path>
                <path d="M19.9174478,29.8129972 C19.9174478,32.2536629 22.0829875,34.2322133 24.7543161,34.2322133 C27.4256447,34.2322133 29.5911844,32.2536629 29.5911844,29.8129972 C29.5911844,27.3723316 27.4256447,25.3937812 24.7543161,25.3937812 C22.0829875,25.3937812 19.9174478,27.3723316 19.9174478,29.8129972 Z" id="Shape" fill="#FFFFFF"></path>
                <path d="M86.3194955,70.1801222 C85.5315044,70.1797071 84.7658975,69.9341762 84.142509,69.4819604 L72.9646726,61.3788263 C71.9363848,60.6546405 71.4035714,59.4669428 71.5703883,58.2708183 C71.7372051,57.0746937 72.5777874,56.0556007 73.7700527,55.6040207 C74.9623181,55.1524407 76.3214066,55.3383909 77.326562,56.0906216 L82.7571539,60.0344934 L82.7571539,58.2296707 C82.7602361,56.6951066 83.8767239,55.3596813 85.4645335,54.991388 C91.7111643,53.5458284 96.2682398,48.5084017 96.7732359,42.4906605 C97.2782321,36.4729193 93.6175586,30.8284518 87.689018,28.4835188 C85.8789852,27.759523 85.0372247,25.7959364 85.8088933,24.0977253 C86.5805619,22.3995143 88.6734443,21.6097568 90.4834771,22.3337525 C98.7613788,25.6091494 104.093035,33.2694823 103.960804,41.6974948 C103.828574,50.1255073 98.258908,57.635285 89.8818371,60.6806645 L89.8818371,66.8749943 C89.8601474,68.7063569 88.271568,70.1802353 86.3194955,70.1801222 Z" id="Shape" fill="#FFFFFF"></path>
                <path d="M25.0234708,71.9997995 C24.078679,71.9997995 23.1725835,71.6476691 22.5045149,71.0208729 C21.8364462,70.3940768 21.4611292,69.5439588 21.4611292,68.6575352 L21.4611292,58.0068531 C6.78262733,53.2730369 -2.10285304,39.2827749 0.445680136,24.9178555 C2.99421331,10.5529361 16.2308896,0.0174906606 31.7523382,0 L52.6197438,0 C63.9740285,-0.000517999927 74.4660565,5.68240169 80.1433582,14.9079369 C85.82066,24.133472 85.82066,35.4999496 80.1433582,44.7254848 C74.4660565,53.95102 63.9740285,59.6339397 52.6197438,59.6334217 L43.2864088,59.6334217 L27.2004573,71.3313466 C26.5730194,71.7729465 25.8077801,72.0079165 25.0234708,71.9997995 Z M31.7760873,6.71423752 C19.3049723,6.70765287 8.79306391,15.4405159 7.29040958,27.0559358 C5.78775526,38.6713558 13.7677507,49.5100145 25.8784328,52.3027221 C27.4691059,52.6716824 28.5863666,54.0110971 28.5858124,55.5484321 L28.5858124,61.8838796 L39.8903098,53.7139003 C40.5136984,53.2616846 41.2793052,53.0161537 42.0672963,53.0157385 L52.6514091,53.0157385 C66.2681896,53.0157385 77.3067712,42.6591077 77.3067712,29.8835562 C77.3067712,17.1080046 66.2681896,6.75137384 52.6514091,6.75137384 L31.7760873,6.75137384 L31.7760873,6.71423752 Z" id="Shape" fill="#31B5EC"></path>
            </g>
        </g>
    </g>
</svg>