<?xml version="1.0" encoding="UTF-8"?>
<svg width="18px" height="21px" viewBox="0 0 18 21" version="1.1" xmlns="http://www.w3.org/2000/svg" xmlns:xlink="http://www.w3.org/1999/xlink">
    <!-- Generator: Sketch 52.2 (67145) - http://www.bohemiancoding.com/sketch -->
    <title>yanzhengma</title>
    <desc>Created with Sketch.</desc>
    <defs>
        <polygon id="path-1" points="6.48180728e-17 0 18 0 18 20 6.48180728e-17 20"></polygon>
    </defs>
    <g id="Page-1" stroke="none" stroke-width="1" fill="none" fill-rule="evenodd">
        <g id="债找找登录-信息填写" transform="translate(-836.000000, -539.000000)">
            <g id="yanzhengma" transform="translate(836.000000, 539.500000)">
                <mask id="mask-2" fill="white">
                    <use xlink:href="#path-1"></use>
                </mask>
                <g id="Clip-2"></g>
                <path d="M13.3490558,8.58390754 L8.24379453,13.6807516 C8.02509282,13.8986809 7.65825486,13.9234852 7.40763067,13.7256409 L4.74226046,11.6357048 C4.25248822,11.2514491 4.20231212,10.5839527 4.63515927,10.1368015 C5.06575675,9.69184139 5.80390351,9.6333561 6.30503799,10.0199433 L7.54212653,10.9750345 L11.7953908,7.02199637 C12.237322,6.61082962 12.9435748,6.6220379 13.3741723,7.02879438 C13.3672809,7.02199637 13.3672809,7.01311964 13.3605034,7.0086251 L13.3968683,7.0444972 C13.3900908,7.03781156 13.3809782,7.03550811 13.3741723,7.03098547 C13.7887658,7.46257432 13.7842095,8.1501276 13.3490558,8.58390754 M17.9554891,4.24220351 C17.9350143,3.62869788 17.4224322,3.04890136 16.8118614,2.94552678 C16.8118614,2.94552678 14.4517339,2.57694586 13.1281329,2.11178837 C11.4741442,1.53199184 9.83849454,0.255484393 9.83849454,0.255484393 C9.32813359,-0.104107435 8.5467021,-0.0816066102 8.07293382,0.30717168 C8.07293382,0.30717168 6.91563724,1.45999482 4.7536227,2.13198574 C2.75802649,2.92521705 1.16332648,3.00620316 1.16332648,3.00620316 C0.561839811,3.08258236 0.0424801892,3.63088897 0.0310325213,4.2443946 C0.0310325213,4.2443946 -0.0509521454,7.39507184 0.0515927607,10.1614934 C0.0903211895,15.1099894 6.02938271,20 9.02969687,20 C11.9845051,20 17.0875167,16.5909144 17.8916442,10.23335 C18.0898711,6.45798694 17.9554891,4.24220351 17.9554891,4.24220351" id="Fill-1" fill="#626262" mask="url(#mask-2)"></path>
            </g>
        </g>
    </g>
</svg>