<?xml version="1.0" encoding="UTF-8"?>
<svg width="32px" height="31px" viewBox="0 0 32 31" version="1.1" xmlns="http://www.w3.org/2000/svg" xmlns:xlink="http://www.w3.org/1999/xlink">
    <!-- Generator: Sketch 52.2 (67145) - http://www.bohemiancoding.com/sketch -->
    <title>zhuce</title>
    <desc>Created with Sketch.</desc>
    <g id="Page-1" stroke="none" stroke-width="1" fill="none" fill-rule="evenodd">
        <g id="首页" transform="translate(-1558.000000, -47.000000)" fill-rule="nonzero">
            <g id="zhuce" transform="translate(1558.000000, 47.000000)">
                <path d="M23.0391666,20.0338331 C23.6252261,19.169659 23.3671817,18.0150477 22.4628542,17.4550742 C21.7260679,16.9988054 20.9521024,16.6098807 20.1502021,16.2907326 C22.4834535,14.6459564 24,12.0015178 24,9.02458393 C24,4.04845336 19.7634705,0 14.5560927,0 C9.34871491,0 5.11218543,4.04842135 5.11218543,9.02458393 C5.11218543,11.9996933 6.62692316,14.6427876 8.95776299,16.2877238 C7.22396892,16.9777124 5.63142264,17.9924823 4.26335886,19.2997381 C1.51410133,21.9269245 0,25.4200134 0,29.1354274 C0,30.165241 0.873612755,31 1.95120916,31 C3.02880557,31 3.90241833,30.165241 3.90241833,29.1354274 C3.90241833,23.5217688 8.68163142,18.9548238 14.5560592,18.9548238 C16.6186388,18.9548238 18.6189179,19.5183502 20.3405868,20.5844924 C21.2450148,21.144562 22.4532412,20.8979431 23.0391666,20.0337691 L23.0391666,20.0338331 Z" id="Shape" fill="#31B5EC"></path>
                <path d="M30.0158719,23.3422609 L27.7341281,23.3422609 L27.7341281,21.2202391 C27.7341281,20.2011035 26.8458447,19.375 25.75,19.375 C24.6541553,19.375 23.7658719,20.2011035 23.7658719,21.2202391 L23.7658719,23.3422609 L21.4841281,23.3422609 C20.3882834,23.3422609 19.5,24.1683644 19.5,25.1875 C19.5,26.2066356 20.3882834,27.0327391 21.4841281,27.0327391 L23.7658719,27.0327391 L23.7658719,29.1547609 C23.7658719,30.1738965 24.6541553,31 25.75,31 C26.8458447,31 27.7341281,30.1738965 27.7341281,29.1547609 L27.7341281,27.0327391 L30.0158719,27.0327391 C31.1117166,27.0327391 32,26.2066356 32,25.1875 C32,24.1683644 31.1117166,23.3422609 30.0158719,23.3422609 Z" id="Shape" fill="#FFFFFF"></path>
            </g>
        </g>
    </g>
</svg>